<mxfile host="app.diagrams.net" agent="Mozilla/5.0 (X11; Linux x86_64) AppleWebKit/537.36 (KHTML, like Gecko) Chrome/138.0.0.0 Safari/537.36" version="27.2.0">
  <diagram name="Halaman-1" id="M-Q6K7RMF8zxZIFwadEF">
    <mxGraphModel dx="658" dy="522" grid="1" gridSize="10" guides="1" tooltips="1" connect="1" arrows="1" fold="1" page="1" pageScale="1" pageWidth="827" pageHeight="1169" math="0" shadow="0">
      <root>
        <mxCell id="0" />
        <mxCell id="1" parent="0" />
        <mxCell id="l9lJJmMYNwfwDqQeXrkE-1" value="Router" style="sketch=0;points=[[0.5,0,0],[1,0.5,0],[0.5,1,0],[0,0.5,0],[0.145,0.145,0],[0.8555,0.145,0],[0.855,0.8555,0],[0.145,0.855,0]];verticalLabelPosition=middle;html=1;verticalAlign=middle;aspect=fixed;align=left;pointerEvents=1;shape=mxgraph.cisco19.rect;prIcon=router;fillColor=#FAFAFA;strokeColor=#000000;labelPosition=right;" vertex="1" parent="1">
          <mxGeometry x="240" y="70" width="50" height="50" as="geometry" />
        </mxCell>
        <mxCell id="l9lJJmMYNwfwDqQeXrkE-7" value="" style="edgeStyle=orthogonalEdgeStyle;rounded=0;orthogonalLoop=1;jettySize=auto;html=1;" edge="1" parent="1" source="l9lJJmMYNwfwDqQeXrkE-2" target="l9lJJmMYNwfwDqQeXrkE-1">
          <mxGeometry relative="1" as="geometry" />
        </mxCell>
        <mxCell id="l9lJJmMYNwfwDqQeXrkE-2" value="Modem Nexa" style="fontColor=#000000;verticalAlign=top;verticalLabelPosition=bottom;labelPosition=center;align=center;html=1;outlineConnect=0;fillColor=#CCCCCC;strokeColor=#000000;gradientColor=none;gradientDirection=north;strokeWidth=2;shape=mxgraph.networks.modem;" vertex="1" parent="1">
          <mxGeometry x="40" y="80" width="100" height="30" as="geometry" />
        </mxCell>
        <mxCell id="l9lJJmMYNwfwDqQeXrkE-16" value="" style="edgeStyle=orthogonalEdgeStyle;rounded=0;orthogonalLoop=1;jettySize=auto;html=1;" edge="1" parent="1" source="l9lJJmMYNwfwDqQeXrkE-4" target="l9lJJmMYNwfwDqQeXrkE-14">
          <mxGeometry relative="1" as="geometry" />
        </mxCell>
        <mxCell id="l9lJJmMYNwfwDqQeXrkE-4" value="Switch&lt;div&gt;Ruijie 8p&lt;/div&gt;&lt;div&gt;Lantai 1&lt;/div&gt;" style="sketch=0;points=[[0.015,0.015,0],[0.985,0.015,0],[0.985,0.985,0],[0.015,0.985,0],[0.25,0,0],[0.5,0,0],[0.75,0,0],[1,0.25,0],[1,0.5,0],[1,0.75,0],[0.75,1,0],[0.5,1,0],[0.25,1,0],[0,0.75,0],[0,0.5,0],[0,0.25,0]];verticalLabelPosition=bottom;html=1;verticalAlign=top;aspect=fixed;align=center;pointerEvents=1;shape=mxgraph.cisco19.rect;prIcon=l2_switch;fillColor=#FAFAFA;strokeColor=#000000;" vertex="1" parent="1">
          <mxGeometry x="160" y="200" width="50" height="50" as="geometry" />
        </mxCell>
        <mxCell id="l9lJJmMYNwfwDqQeXrkE-6" value="AP Ruijie&lt;div&gt;2200&lt;/div&gt;&lt;div&gt;720&lt;/div&gt;" style="image;points=[];aspect=fixed;html=1;align=center;shadow=0;dashed=0;image=img/lib/allied_telesis/wireless/Access_Point_Indoor.svg;" vertex="1" parent="1">
          <mxGeometry x="246.7" y="360" width="36.6" height="54.6" as="geometry" />
        </mxCell>
        <mxCell id="l9lJJmMYNwfwDqQeXrkE-13" value="" style="edgeStyle=orthogonalEdgeStyle;rounded=0;orthogonalLoop=1;jettySize=auto;html=1;" edge="1" parent="1" source="l9lJJmMYNwfwDqQeXrkE-8" target="l9lJJmMYNwfwDqQeXrkE-6">
          <mxGeometry relative="1" as="geometry" />
        </mxCell>
        <mxCell id="l9lJJmMYNwfwDqQeXrkE-8" value="Switch&lt;div&gt;Ruijie 8p&lt;/div&gt;&lt;div&gt;Lantai 2&lt;/div&gt;" style="sketch=0;points=[[0.015,0.015,0],[0.985,0.015,0],[0.985,0.985,0],[0.015,0.985,0],[0.25,0,0],[0.5,0,0],[0.75,0,0],[1,0.25,0],[1,0.5,0],[1,0.75,0],[0.75,1,0],[0.5,1,0],[0.25,1,0],[0,0.75,0],[0,0.5,0],[0,0.25,0]];verticalLabelPosition=bottom;html=1;verticalAlign=top;aspect=fixed;align=center;pointerEvents=1;shape=mxgraph.cisco19.rect;prIcon=l2_switch;fillColor=#FAFAFA;strokeColor=#000000;" vertex="1" parent="1">
          <mxGeometry x="240" y="200" width="50" height="50" as="geometry" />
        </mxCell>
        <mxCell id="l9lJJmMYNwfwDqQeXrkE-17" value="" style="edgeStyle=orthogonalEdgeStyle;rounded=0;orthogonalLoop=1;jettySize=auto;html=1;" edge="1" parent="1" source="l9lJJmMYNwfwDqQeXrkE-9" target="l9lJJmMYNwfwDqQeXrkE-15">
          <mxGeometry relative="1" as="geometry" />
        </mxCell>
        <mxCell id="l9lJJmMYNwfwDqQeXrkE-9" value="Switch&lt;div&gt;Ruijie 8p&lt;/div&gt;&lt;div&gt;Lantai 3&lt;/div&gt;" style="sketch=0;points=[[0.015,0.015,0],[0.985,0.015,0],[0.985,0.985,0],[0.015,0.985,0],[0.25,0,0],[0.5,0,0],[0.75,0,0],[1,0.25,0],[1,0.5,0],[1,0.75,0],[0.75,1,0],[0.5,1,0],[0.25,1,0],[0,0.75,0],[0,0.5,0],[0,0.25,0]];verticalLabelPosition=bottom;html=1;verticalAlign=top;aspect=fixed;align=center;pointerEvents=1;shape=mxgraph.cisco19.rect;prIcon=l2_switch;fillColor=#FAFAFA;strokeColor=#000000;" vertex="1" parent="1">
          <mxGeometry x="320" y="200" width="50" height="50" as="geometry" />
        </mxCell>
        <mxCell id="l9lJJmMYNwfwDqQeXrkE-10" style="edgeStyle=orthogonalEdgeStyle;rounded=0;orthogonalLoop=1;jettySize=auto;html=1;entryX=0.5;entryY=0;entryDx=0;entryDy=0;entryPerimeter=0;" edge="1" parent="1" source="l9lJJmMYNwfwDqQeXrkE-1" target="l9lJJmMYNwfwDqQeXrkE-4">
          <mxGeometry relative="1" as="geometry">
            <Array as="points">
              <mxPoint x="250" y="130" />
              <mxPoint x="185" y="130" />
            </Array>
          </mxGeometry>
        </mxCell>
        <mxCell id="l9lJJmMYNwfwDqQeXrkE-11" style="edgeStyle=orthogonalEdgeStyle;rounded=0;orthogonalLoop=1;jettySize=auto;html=1;entryX=0.5;entryY=0;entryDx=0;entryDy=0;entryPerimeter=0;" edge="1" parent="1" source="l9lJJmMYNwfwDqQeXrkE-1" target="l9lJJmMYNwfwDqQeXrkE-8">
          <mxGeometry relative="1" as="geometry" />
        </mxCell>
        <mxCell id="l9lJJmMYNwfwDqQeXrkE-12" style="edgeStyle=orthogonalEdgeStyle;rounded=0;orthogonalLoop=1;jettySize=auto;html=1;entryX=0.5;entryY=0;entryDx=0;entryDy=0;entryPerimeter=0;" edge="1" parent="1" source="l9lJJmMYNwfwDqQeXrkE-1" target="l9lJJmMYNwfwDqQeXrkE-9">
          <mxGeometry relative="1" as="geometry">
            <Array as="points">
              <mxPoint x="280" y="130" />
              <mxPoint x="345" y="130" />
            </Array>
          </mxGeometry>
        </mxCell>
        <mxCell id="l9lJJmMYNwfwDqQeXrkE-14" value="AP Ruijie&lt;div&gt;EW1200&lt;/div&gt;&lt;div&gt;2200&lt;/div&gt;&lt;div&gt;720&lt;/div&gt;" style="image;points=[];aspect=fixed;html=1;align=center;shadow=0;dashed=0;image=img/lib/allied_telesis/wireless/Access_Point_Indoor.svg;" vertex="1" parent="1">
          <mxGeometry x="166.7" y="360" width="36.6" height="54.6" as="geometry" />
        </mxCell>
        <mxCell id="l9lJJmMYNwfwDqQeXrkE-15" value="AP Ruijie&lt;div&gt;2200&lt;/div&gt;&lt;div&gt;720&lt;/div&gt;" style="image;points=[];aspect=fixed;html=1;align=center;shadow=0;dashed=0;image=img/lib/allied_telesis/wireless/Access_Point_Indoor.svg;" vertex="1" parent="1">
          <mxGeometry x="326.7" y="360" width="36.6" height="54.6" as="geometry" />
        </mxCell>
      </root>
    </mxGraphModel>
  </diagram>
</mxfile>
